<svg xmlns="http://www.w3.org/2000/svg" width="340" height="200" viewBox="0 0 340 200"><style>* {
          font-family: 'Segoe UI', Ubuntu, "Helvetica Neue", Sans-Serif
        }</style><g class="gpsc-root"><rect x="1" y="1" rx="5" ry="5" height="99%" width="99.41176470588235%" stroke="#2c292d" stroke-width="1" fill="#2c292d" stroke-opacity="1"></rect><text x="30" y="40" class="gpsc-item" style="--gpsc-i: 0; font-size: 22px; fill: #eb1f6a;">Top Languages by Commit</text><g transform="translate(0,40)"><g transform="translate(40,0)"><rect y="18" width="14" height="14" class="gpsc-item" style="--gpsc-i: 0; stroke-width: 1px;" fill="#3178c6" stroke="#2c292d"></rect><rect y="43.2" width="14" height="14" class="gpsc-item" style="--gpsc-i: 1; stroke-width: 1px;" fill="#00ADD8" stroke="#2c292d"></rect><rect y="68.4" width="14" height="14" class="gpsc-item" style="--gpsc-i: 2; stroke-width: 1px;" fill="#00B4AB" stroke="#2c292d"></rect><rect y="93.60000000000002" width="14" height="14" class="gpsc-item" style="--gpsc-i: 3; stroke-width: 1px;" fill="#b07219" stroke="#2c292d"></rect><rect y="118.80000000000001" width="14" height="14" class="gpsc-item" style="--gpsc-i: 4; stroke-width: 1px;" fill="#3572A5" stroke="#2c292d"></rect><text x="16.8" y="30" class="gpsc-item" style="--gpsc-i: 0; fill: #ffffff; font-size: 14px;">TypeScript</text><text x="16.8" y="55.2" class="gpsc-item" style="--gpsc-i: 1; fill: #ffffff; font-size: 14px;">Go</text><text x="16.8" y="80.4" class="gpsc-item" style="--gpsc-i: 2; fill: #ffffff; font-size: 14px;">Dart</text><text x="16.8" y="105.60000000000002" class="gpsc-item" style="--gpsc-i: 3; fill: #ffffff; font-size: 14px;">Java</text><text x="16.8" y="130.8" class="gpsc-item" style="--gpsc-i: 4; fill: #ffffff; font-size: 14px;">Python</text></g><g transform="translate( 230, 80 )"><g class="arc" style="--gpsc-i: 0;"><path d="M3.67394039744206e-15,-60A60,60,0,1,1,-5.804296549786807,59.71859125567291L-3.385839654042304,34.83584489914253A35,35,0,1,0,2.1431318985078682e-15,-35Z" style="fill: #3178c6; stroke-width: 2px;" stroke="#2c292d"></path></g><g class="arc" style="--gpsc-i: 1;"><path d="M-5.804296549786807,59.71859125567291A60,60,0,0,1,-21.674499971229228,-55.94833376426133L-12.643458316550383,-32.636528029152444A35,35,0,0,0,-3.385839654042304,34.83584489914253Z" style="fill: #00ADD8; stroke-width: 2px;" stroke="#2c292d"></path></g><g class="arc" style="--gpsc-i: 2;"><path d="M-21.674499971229228,-55.94833376426133A60,60,0,0,1,-11.665435292447917,-58.855056022721705L-6.804837253927952,-34.33211601325433A35,35,0,0,0,-12.643458316550383,-32.636528029152444Z" style="fill: #00B4AB; stroke-width: 2px;" stroke="#2c292d"></path></g><g class="arc" style="--gpsc-i: 3;"><path d="M-11.665435292447917,-58.855056022721705A60,60,0,0,1,-5.211295664991986,-59.77325821378684L-3.039922471245325,-34.86773395804232A35,35,0,0,0,-6.804837253927952,-34.33211601325433Z" style="fill: #b07219; stroke-width: 2px;" stroke="#2c292d"></path></g><g class="arc" style="--gpsc-i: 4;"><path d="M-5.211295664991986,-59.77325821378684A60,60,0,0,1,-1.1021821192326178e-14,-60L-6.429395695523604e-15,-35A35,35,0,0,0,-3.039922471245325,-34.86773395804232Z" style="fill: #3572A5; stroke-width: 2px;" stroke="#2c292d"></path></g></g></g></g></svg>