<svg xmlns="http://www.w3.org/2000/svg" width="340" height="200" viewBox="0 0 340 200"><style>* {
          font-family: 'Segoe UI', Ubuntu, "Helvetica Neue", Sans-Serif
        }</style><g class="gpsc-root"><rect x="1" y="1" rx="5" ry="5" height="99%" width="99.41176470588235%" stroke="#000000" stroke-width="1" fill="#291b3e" stroke-opacity="0"></rect><text x="30" y="40" class="gpsc-item" style="--gpsc-i: 0; font-size: 22px; fill: #ff64da;">Top Languages by Commit</text><g transform="translate(0,40)"><g transform="translate(40,0)"><rect y="18" width="14" height="14" class="gpsc-item" style="--gpsc-i: 0; stroke-width: 1px;" fill="#00ADD8" stroke="#291b3e"></rect><rect y="43.2" width="14" height="14" class="gpsc-item" style="--gpsc-i: 1; stroke-width: 1px;" fill="#3178c6" stroke="#291b3e"></rect><rect y="68.4" width="14" height="14" class="gpsc-item" style="--gpsc-i: 2; stroke-width: 1px;" fill="#b07219" stroke="#291b3e"></rect><rect y="93.60000000000002" width="14" height="14" class="gpsc-item" style="--gpsc-i: 3; stroke-width: 1px;" fill="#00B4AB" stroke="#291b3e"></rect><rect y="118.80000000000001" width="14" height="14" class="gpsc-item" style="--gpsc-i: 4; stroke-width: 1px;" fill="#3572A5" stroke="#291b3e"></rect><text x="16.8" y="30" class="gpsc-item" style="--gpsc-i: 0; fill: #ffffff; font-size: 14px;">Go</text><text x="16.8" y="55.2" class="gpsc-item" style="--gpsc-i: 1; fill: #ffffff; font-size: 14px;">TypeScript</text><text x="16.8" y="80.4" class="gpsc-item" style="--gpsc-i: 2; fill: #ffffff; font-size: 14px;">Java</text><text x="16.8" y="105.60000000000002" class="gpsc-item" style="--gpsc-i: 3; fill: #ffffff; font-size: 14px;">Dart</text><text x="16.8" y="130.8" class="gpsc-item" style="--gpsc-i: 4; fill: #ffffff; font-size: 14px;">Python</text></g><g transform="translate( 230, 80 )"><g class="arc" style="--gpsc-i: 0;"><path d="M3.67394039744206e-15,-60A60,60,0,0,1,18.98977710382119,56.9156249684319L11.077369977229027,33.200781231585275A35,35,0,0,0,2.1431318985078682e-15,-35Z" style="fill: #00ADD8; stroke-width: 2px;" stroke="#291b3e"></path></g><g class="arc" style="--gpsc-i: 1;"><path d="M18.98977710382119,56.9156249684319A60,60,0,0,1,-37.36752175906135,-46.94324570783401L-21.79772102611912,-27.383559996236507A35,35,0,0,0,11.077369977229027,33.200781231585275Z" style="fill: #3178c6; stroke-width: 2px;" stroke="#291b3e"></path></g><g class="arc" style="--gpsc-i: 2;"><path d="M-37.36752175906135,-46.94324570783401A60,60,0,0,1,-17.717926171569797,-57.32429757248494L-10.335456933415715,-33.43917358394955A35,35,0,0,0,-21.79772102611912,-27.383559996236507Z" style="fill: #b07219; stroke-width: 2px;" stroke="#291b3e"></path></g><g class="arc" style="--gpsc-i: 3;"><path d="M-17.717926171569797,-57.32429757248494A60,60,0,0,1,-5.985392512389047,-59.70071252901959L-3.4914789655602774,-34.825415641928096A35,35,0,0,0,-10.335456933415715,-33.43917358394955Z" style="fill: #00B4AB; stroke-width: 2px;" stroke="#291b3e"></path></g><g class="arc" style="--gpsc-i: 4;"><path d="M-5.985392512389047,-59.70071252901959A60,60,0,0,1,-1.1021821192326178e-14,-60L-6.429395695523604e-15,-35A35,35,0,0,0,-3.4914789655602774,-34.825415641928096Z" style="fill: #3572A5; stroke-width: 2px;" stroke="#291b3e"></path></g></g></g></g></svg>